<svg width="15" height="16" viewBox="0 0 15 16" fill="none" xmlns="http://www.w3.org/2000/svg">
<path d="M5.50468 6.29948V5.67541C5.29033 5.64696 5.0722 5.62799 4.85026 5.62799C2.17569 5.62799 0 7.80558 0 10.4802C0 12.1209 0.819442 13.5739 2.07137 14.4522C1.26331 13.5853 0.768227 12.4244 0.768227 11.1478C0.768227 8.51121 2.88322 6.36207 5.50468 6.29948Z" fill="#00F7EF"/>
<path d="M5.62034 13.3634C6.81347 13.3634 7.78655 12.413 7.83208 11.2313L7.83587 0.667694H9.76498C9.72514 0.451452 9.70238 0.227623 9.70238 0H7.06575L7.06195 10.5636C7.01833 11.7453 6.04524 12.6957 4.85212 12.6957C4.48033 12.6957 4.13131 12.6027 3.82402 12.4415C4.22615 12.9992 4.88057 13.3634 5.62034 13.3634Z" fill="#00F7EF"/>
<path d="M13.369 4.25462V3.66659C12.633 3.66659 11.9464 3.44845 11.3716 3.07288C11.8838 3.6609 12.5799 4.0858 13.369 4.25462Z" fill="#00F7EF"/>
<path d="M11.3736 3.07287C10.8121 2.42794 10.4707 1.58763 10.4707 0.669556H9.76503C9.95092 1.67299 10.5465 2.53417 11.3736 3.07287Z" fill="#FF004F"/>
<path d="M4.85219 8.26459C3.63061 8.26459 2.63666 9.25854 2.63666 10.4801C2.63666 11.3299 3.11846 12.0697 3.82409 12.4415C3.56043 12.0773 3.40489 11.6315 3.40489 11.1497C3.40489 9.92813 4.39884 8.93418 5.62041 8.93418C5.84804 8.93418 6.06807 8.97211 6.27483 9.03661V6.34497C6.06049 6.31651 5.84235 6.29755 5.62041 6.29755C5.58248 6.29755 5.54454 6.29944 5.5066 6.30134V8.36702C5.29795 8.30252 5.07981 8.26459 4.85219 8.26459Z" fill="#FF004F"/>
<path d="M13.369 4.2547V6.3033C12.0033 6.3033 10.7362 5.86513 9.70238 5.12346V10.4802C9.70238 13.1548 7.52669 15.3323 4.85022 15.3323C3.81643 15.3323 2.85852 15.0061 2.06943 14.4522C2.95526 15.4044 4.21857 16 5.61845 16C8.29302 16 10.4706 13.8243 10.4706 11.1479V5.79305C11.5044 6.53472 12.7715 6.9729 14.1372 6.9729V4.33626C13.8736 4.33626 13.6175 4.30781 13.369 4.2547Z" fill="#FF004F"/>
<path d="M9.70248 10.4801V5.12338C10.7363 5.86505 12.0034 6.30322 13.3691 6.30322V4.25462C12.58 4.08579 11.8839 3.6609 11.3717 3.07287C10.5466 2.53417 9.94907 1.67299 9.76318 0.669556H7.83597L7.83218 11.2332C7.78855 12.4168 6.81356 13.3652 5.62044 13.3652C4.88067 13.3652 4.22625 12.9991 3.82412 12.4414C3.11849 12.0697 2.63668 11.3318 2.63668 10.4801C2.63668 9.25852 3.63064 8.26457 4.85221 8.26457C5.07984 8.26457 5.29987 8.30251 5.50663 8.367V6.29943C2.88328 6.36202 0.76828 8.51116 0.76828 11.1478C0.76828 12.4225 1.26336 13.5834 2.07142 14.4502C2.85862 15.0041 3.81843 15.3304 4.85221 15.3304C7.52678 15.3304 9.70248 13.1547 9.70248 10.4801Z" fill="black"/>
</svg>
