<svg width="20" height="17" viewBox="0 0 20 17" fill="none" xmlns="http://www.w3.org/2000/svg">
<path fill-rule="evenodd" clip-rule="evenodd" d="M0 6.01012C0 7.81316 0.982989 9.46038 2.50215 10.5511C2.6362 10.6401 2.70322 10.7737 2.70322 10.9518C2.70322 10.9963 2.68088 11.0631 2.68088 11.1076C2.56918 11.5528 2.36811 12.2874 2.34577 12.3096C2.32343 12.3764 2.30109 12.4209 2.30109 12.4877C2.30109 12.6213 2.41279 12.7326 2.54683 12.7326C2.59152 12.7326 2.6362 12.7103 2.68088 12.688L4.26707 11.7754C4.37877 11.7086 4.51281 11.6641 4.64686 11.6641C4.71388 11.6641 4.80324 11.6641 4.87026 11.6864C5.6075 11.9089 6.41177 12.0202 7.23837 12.0202C11.2373 12.0202 14.4767 9.32682 14.4767 6.01012C14.4767 2.69343 11.2373 0 7.23837 0C3.2394 0 0 2.69343 0 6.01012Z" fill="url(#paint0_linear_827_10316)"/>
<path fill-rule="evenodd" clip-rule="evenodd" d="M13.9826 15.5572C14.6735 15.5572 15.3421 15.4675 15.9438 15.2881C15.9884 15.2657 16.0552 15.2657 16.1221 15.2657C16.2335 15.2657 16.345 15.3105 16.4341 15.3554L17.749 16.1179C17.7936 16.1403 17.8159 16.1628 17.8605 16.1628C17.9719 16.1628 18.061 16.0731 18.061 15.9609C18.061 15.9161 18.0388 15.8712 18.0388 15.8039C18.0388 15.7815 17.8605 15.176 17.7713 14.7947C17.749 14.7499 17.749 14.705 17.749 14.6602C17.749 14.5256 17.8159 14.4135 17.9273 14.3237C19.1977 13.4042 20 12.0362 20 10.5112C20 7.73021 17.3033 5.46509 13.9826 5.46509C10.6618 5.46509 7.96512 7.70779 7.96512 10.5112C7.96512 13.2921 10.6618 15.5572 13.9826 15.5572Z" fill="url(#paint1_linear_827_10316)"/>
<path fill-rule="evenodd" clip-rule="evenodd" d="M5.75582 4.06976C5.75582 4.58896 5.34479 4.99999 4.82559 4.99999C4.30639 4.99999 3.89536 4.58896 3.89536 4.06976C3.89536 3.55056 4.30639 3.13953 4.82559 3.13953C5.34479 3.13953 5.75582 3.55056 5.75582 4.06976Z" fill="#168743"/>
<path fill-rule="evenodd" clip-rule="evenodd" d="M10.5814 4.06976C10.5814 4.58896 10.1703 4.99999 9.65115 4.99999C9.13195 4.99999 8.72092 4.58896 8.72092 4.06976C8.72092 3.55056 9.13195 3.13953 9.65115 3.13953C10.1703 3.13953 10.5814 3.55056 10.5814 4.06976Z" fill="#168743"/>
<path fill-rule="evenodd" clip-rule="evenodd" d="M15.2325 8.95348C15.2325 9.40568 15.5943 9.76743 16.0465 9.76743C16.4987 9.76743 16.8605 9.40568 16.8605 8.95348C16.8605 8.50128 16.4987 8.13953 16.0465 8.13953C15.5943 8.13953 15.2325 8.50128 15.2325 8.95348Z" fill="#919191"/>
<path fill-rule="evenodd" clip-rule="evenodd" d="M11.2209 8.95348C11.2209 9.40568 11.5827 9.76743 12.0349 9.76743C12.4871 9.76743 12.8489 9.40568 12.8489 8.95348C12.8489 8.50128 12.4871 8.13953 12.0349 8.13953C11.5827 8.13953 11.2209 8.50128 11.2209 8.95348Z" fill="#919191"/>
<defs>
<linearGradient id="paint0_linear_827_10316" x1="14.0298" y1="11.9877" x2="14.0298" y2="0.0555827" gradientUnits="userSpaceOnUse">
<stop stop-color="#05CD66"/>
<stop offset="1" stop-color="#61F380"/>
<stop offset="1" stop-color="#9EEE69"/>
</linearGradient>
<linearGradient id="paint1_linear_827_10316" x1="19.6238" y1="15.4712" x2="19.6238" y2="5.46123" gradientUnits="userSpaceOnUse">
<stop stop-color="#E4E6E6"/>
<stop offset="1" stop-color="#F0F0F0"/>
</linearGradient>
</defs>
</svg>
